# xmcd
#
# Track frame offsets:
# 150
# 14970
# 28928
# 40975
# 58910
# 72727
# 87256
# 101393
# 120130
# 135147
# 147734
# 162380
# 176456
# 188099
#
# Disc length: 2716 seconds
#
#
# Revision: 0
# Processed by: cddbd v1.5.2PL0 Copyright (c) Steve Scherf et al.
# Submitted via: FreeRIP 2.951 
#
DISCID=c80a9a0e
DTITLE=Rogério Rodrigues - Sanfoneando
DYEAR=2007
DGENRE=Folklore
TTITLE0=Longe Tambem se Ama
TTITLE1=Ebrio de Amor
TTITLE2=Chote do Cachorro
TTITLE3=Pena de Minha Alma
TTITLE4=Chote do Papai
TTITLE5=Ternura dos Teus Beijos
TTITLE6=Segredo do Amor
TTITLE7=Distante de Ti
TTITLE8=Dama de Branco
TTITLE9=Não Vá Embora
TTITLE10=Coração de Pedra
TTITLE11=Vaneirinha do Adeus
TTITLE12=João Parado
TTITLE13=Ciúme e Inveja
EXTD=
EXTT0=
EXTT1=
EXTT2=
EXTT3=
EXTT4=
EXTT5=
EXTT6=
EXTT7=
EXTT8=
EXTT9=
EXTT10=
EXTT11=
EXTT12=
EXTT13=
PLAYORDER=
